<?xml version="1.0" encoding="UTF-8" standalone="no"?>
<svg
   height="20.117928"
   viewBox="0 -960 711.7363 804.7171"
   width="17.793407"
   fill="#ffffff"
   version="1.1"
   id="svg1"
   xmlns="http://www.w3.org/2000/svg"
   xmlns:svg="http://www.w3.org/2000/svg">
  <defs
     id="defs1" />
  <path
     d="m 40,-160 c -11.33333,0 -20.83333,-3.83333 -28.5,-11.5 C 3.83333,-179.16667 0,-188.66667 0,-200 v -640 c 0,-11.33333 3.83333,-20.83333 11.5,-28.5 7.66667,-7.66667 17.16667,-11.5 28.5,-11.5 h 80 v -80 h 160 v 80 h 80 c 11.33333,0 20.83333,3.83333 28.5,11.5 7.66667,7.66667 11.5,17.16667 11.5,28.5 v 280 c -14,0 -27.66667,1.16667 -41,3.5 -13.33333,2.33333 -26.33333,5.83333 -39,10.5 V -800 H 80 v 560 h 94 c 5.33333,15.33333 11.83333,29.66667 19.5,43 7.66667,13.33333 16.83333,25.66667 27.5,37 z"
     id="path1" />
  <path
     style="font-weight:bold;font-size:448.375px;line-height:1.25;font-family:'Noto Sans';stroke-width:37.3646"
     d="m 485.30647,-319.83664 q 0,51.56312 -11.20938,88.32987 -10.761,36.76675 -35.42162,56.49525 -24.21225,19.7285 -65.46275,19.7285 -57.84038,0 -84.74288,-43.49237 -26.9025,-43.94075 -26.9025,-121.06125 0,-52.0115 10.761,-88.77825 10.761,-36.76675 35.42163,-56.49525 24.66062,-19.7285 65.46275,-19.7285 57.392,0 84.74287,43.49237 27.35088,43.49238 27.35088,121.50963 z m -156.48288,0 q 0,54.70175 9.41588,82.501 9.41587,27.35087 34.97325,27.35087 25.109,0 34.97325,-27.35087 9.86425,-27.35088 9.86425,-82.501 0,-54.70175 -9.86425,-82.501 -9.86425,-27.79925 -34.97325,-27.79925 -25.55738,0 -34.97325,27.79925 -9.41588,27.79925 -9.41588,82.501 z"
     id="text1"
     aria-label="     0" />
</svg>
