<?xml version="1.0" encoding="UTF-8" standalone="no"?>
<svg
   viewBox="0 -960 430.60471 800.23323"

   fill="#ffffff"
   version="1.1"
   id="svg1"
   xmlns="http://www.w3.org/2000/svg"
   xmlns:svg="http://www.w3.org/2000/svg">
  <defs
     id="defs1" />
  <path
     d="m 40,-160 c -11.33333,0 -20.83333,-3.83333 -28.5,-11.5 C 3.83333,-179.16667 0,-188.66667 0,-200 v -640 c 0,-11.33333 3.83333,-20.83333 11.5,-28.5 7.66667,-7.66667 17.16667,-11.5 28.5,-11.5 h 80 v -80 h 160 v 80 h 80 c 11.33333,0 20.83333,3.83333 28.5,11.5 7.66667,7.66667 11.5,17.16667 11.5,28.5 v 280 c -14,0 -27.66667,1.16667 -41,3.5 -13.33333,2.33333 -26.33333,5.83333 -39,10.5 V -800 H 80 v 560 h 94 c 5.33333,15.33333 11.83333,29.66667 19.5,43 7.66667,13.33333 16.83333,25.66667 27.5,37 z"
     id="path1" />
  <path
     style="font-weight:bold;font-size:448.375px;line-height:1.25;font-family:'Noto Sans';stroke-width:37.3646"
     d="m 430.60472,-159.76677 h -67.70463 v -185.17887 q 0,-11.65775 0.44838,-30.4895 0.89675,-18.83175 1.34512,-33.17975 -2.24187,2.69025 -9.86425,9.86425 -7.174,6.72562 -13.45125,12.10612 l -36.76675,29.59275 -32.73137,-40.80212 103.12625,-82.05263 h 55.5985 z"
     id="text1"
     aria-label="     1" />
</svg>
