<?xml version="1.0" encoding="UTF-8" standalone="no"?>
<svg
   viewBox="0 -960 1220 800"
   fill="#1f1f1f"
   version="1.1"
   id="svg7"
   width="1220"
   height="800"
   xmlns="http://www.w3.org/2000/svg"
   xmlns:svg="http://www.w3.org/2000/svg">
  <defs
     id="defs7">
    <rect
       x="391.83673"
       y="-202.91545"
       width="251.89503"
       height="165.59767"
       id="rect1" />
    <rect
       x="396.50146"
       y="73.469391"
       width="358.01749"
       height="303.207"
       id="rect7" />
    <rect
       x="396.50146"
       y="73.469391"
       width="358.01749"
       height="303.207"
       id="rect7-0" />
    <rect
       x="396.50146"
       y="73.469391"
       width="358.01749"
       height="303.207"
       id="rect7-0-4" />
    <rect
       x="391.83673"
       y="-202.91545"
       width="251.89503"
       height="165.59767"
       id="rect1-4" />
    <rect
       x="391.83673"
       y="-202.91545"
       width="251.89503"
       height="165.59767"
       id="rect1-4-6" />
    <rect
       x="391.83673"
       y="-202.91545"
       width="251.89503"
       height="165.59767"
       id="rect1-4-6-5" />
    <rect
       x="391.83673"
       y="-202.91545"
       width="251.89503"
       height="165.59767"
       id="rect1-4-6-5-8" />
  </defs>
  <path
     d="M 240,-160 V -464 L 56,-280 0,-336 224,-560 0,-784 l 56,-56 184,184 v -304 h 40 l 228,228 -172,172 172,172 -228,228 z m 80,-496 76,-76 -76,-74 z m 0,342 76,-74 -76,-76 z"
     id="path1"
     style="fill:#0082fc;fill-opacity:1" />
  <g
     id="svg_btctrl"
     transform="matrix(2.0625,0,0,0.99920553,-595.00003,-0.7626912)">
    <path
       style="fill:#0082fc;stroke-width:125.871"
       d="m 560,-960 h 320 v 240 H 560 Z"
       class="ind"
       id="path2" />
  </g>
  <g
     id="svg_btbms0">
    <path
       style="fill:#0082fc;stroke-width:125.871"
       d="m 560,-680 h 320 v 240 H 560 Z"
       class="ind"
       id="path4" />
  </g>
  <g
     id="svg_btbms1">
    <path
       style="fill:#0082fc;stroke-width:125.871"
       d="m 560,-400 h 320 v 240 H 560 Z"
       class="ind"
       id="path6" />
  </g>
  <g
     id="svg_btbms0-6"
     transform="translate(340)">
    <path
       style="fill:#0082fc;stroke-width:125.871"
       d="m 560,-680 h 320 v 240 H 560 Z"
       class="ind"
       id="path4-7" />
  </g>
  <g
     id="svg_btbms1-5"
     transform="translate(340)">
    <path
       style="fill:#0082fc;stroke-width:125.871"
       d="m 560,-400 h 320 v 240 H 560 Z"
       class="ind"
       id="path6-3" />
  </g>
  <text
     xml:space="preserve"
     transform="matrix(6.1307805,0,0,6.1307805,-1807.4015,267.82766)"
     id="text1"
     style="font-size:40px;line-height:1.25;font-family:sans-serif;white-space:pre;shape-inside:url(#rect1);display:inline;fill:#ffffff"><tspan
       x="391.83594"
       y="-166.52101"
       id="tspan6"><tspan
         style="font-weight:bold;font-family:'Noto Sans';-inkscape-font-specification:'Noto Sans Bold'"
         id="tspan5">CTRL</tspan></tspan></text>
  <text
     x="391.83594"
       y="-166.52101"
       id="tspan8"><tspan
         style="font-weight:bold;font-family:'Noto Sans';font-size:40px"
         id="tspan7">TR</tspan></text>
  <text
     xml:space="preserve"
     transform="matrix(6.1307805,0,0,6.1307805,-1491.9193,545.99901)"
     id="text1-7-1"
     style="font-size:40px;line-height:1.25;font-family:sans-serif;white-space:pre;shape-inside:url(#rect1-4-6);display:inline;fill:#ffffff"><tspan
       x="391.83594"
       y="-166.52101"
       id="tspan10"><tspan
         style="font-weight:bold;font-family:'Noto Sans';-inkscape-font-specification:'Noto Sans Bold'"
         id="tspan9">TF</tspan></tspan></text>
  <text
     xml:space="preserve"
     transform="matrix(6.1307805,0,0,6.1307805,-1823.1046,548.69648)"
     id="text1-7-1-6"
     style="font-size:40px;line-height:1.25;font-family:sans-serif;white-space:pre;shape-inside:url(#rect1-4-6-5);display:inline;fill:#ffffff"><tspan
       x="391.83594"
       y="-166.52101"
       id="tspan12"><tspan
         style="font-weight:bold;font-family:'Noto Sans';-inkscape-font-specification:'Noto Sans Bold'"
         id="tspan11">B0
</tspan></tspan></text>
  <text
     xml:space="preserve"
     transform="matrix(6.1307805,0,0,6.1307805,-1823.1046,825.99901)"
     id="text1-7-1-6-7"
     style="font-size:40px;line-height:1.25;font-family:sans-serif;white-space:pre;shape-inside:url(#rect1-4-6-5-8);display:inline;fill:#ffffff"><tspan
       x="391.83594"
       y="-166.52101"
       id="tspan14"><tspan
         style="font-weight:bold;font-family:'Noto Sans';-inkscape-font-specification:'Noto Sans Bold'"
         id="tspan13">B1
</tspan></tspan></text>
</svg>
