<?xml version="1.0" encoding="UTF-8" standalone="no"?>
<svg
   height="20"
   viewBox="0 -960 880 800"
   width="22"
   fill="#1f1f1f"
   version="1.1"
   xmlns="http://www.w3.org/2000/svg">

  <path
     d="M 240,-160 V -464 L 56,-280 0,-336 224,-560 0,-784 l 56,-56 184,184 v -304 h 40 l 228,228 -172,172 172,172 -228,228 z m 80,-496 76,-76 -76,-74 z m 0,342 76,-74 -76,-76 z"
     id="path1"
     style="fill:#0082fc;fill-opacity:1" />
  <path
     style="fill:#0082fc;stroke-width:125.871"
     d="m 560,-960 h 320 v 240 H 560 Z" />
  <path
     style="fill:#0082fc;stroke-width:125.871"
     d="m 560,-680 h 320 v 240 H 560 Z" />
  <path
     style="fill:#0082fc;stroke-width:125.871"
     d="m 560,-400 h 320 v 240 H 560 Z" />
  <path
     style="font-weight:bold;font-size:213.333px;line-height:1.25;-inkscape-font-specification:'sans-serif Bold';fill:#ffffff;stroke-width:40"
     d="m 732.02024,-892.90649 q -18.34664,0 -29.01329,13.86665 -10.45331,13.65331 -10.45331,37.75994 0,24.10662 10.02665,37.5466 10.23998,13.22665 30.71995,13.22665 10.02665,0 19.19997,-2.34666 9.38665,-2.34667 18.7733,-5.97333 v 27.73329 q -18.1333,7.67999 -41.59993,7.67999 -24.31996,0 -40.10661,-9.59999 -15.5733,-9.81331 -23.25329,-27.30662 -7.46666,-17.70664 -7.46666,-41.17327 0,-23.03996 8.53332,-40.7466 8.53332,-17.70664 24.95996,-27.73329 16.42664,-10.02665 40.10661,-10.02665 11.30664,0 22.82663,2.56 11.73331,2.34666 22.18663,7.46665 l -10.66665,26.02663 q -7.67999,-3.62666 -16.42664,-6.18666 -8.53332,-2.77333 -18.34664,-2.77333 z"
     id="text1"
     aria-label="C" />
  <path
     style="font-weight:bold;font-size:213.333px;line-height:1.25;-inkscape-font-specification:'sans-serif Bold';fill:#ffffff;stroke-width:40"
     d="m 775.6799,-561.49337 q 0,24.53329 -5.33332,42.0266 -5.11999,17.4933 -16.85331,26.87995 -11.51998,9.38665 -31.14661,9.38665 -27.51996,0 -40.31994,-20.6933 -12.79998,-20.90663 -12.79998,-57.5999 0,-24.74663 5.11999,-42.23994 5.11999,-17.4933 16.85331,-26.87995 11.73331,-9.38666 31.14662,-9.38666 27.30662,0 40.31993,20.6933 13.01331,20.6933 13.01331,57.81325 z m -74.45321,0 q 0,26.02662 4.47999,39.25327 4.48,13.01331 16.63998,13.01331 11.94664,0 16.63997,-13.01331 4.69333,-13.01332 4.69333,-39.25327 0,-26.02663 -4.69333,-39.25328 -4.69333,-13.22664 -16.63997,-13.22664 -12.15998,0 -16.63998,13.22664 -4.47999,13.22665 -4.47999,39.25328 z"
     id="text1-7"
     aria-label="0" />
  <path
     style="font-weight:bold;font-size:213.333px;line-height:1.25;-inkscape-font-specification:'sans-serif Bold';fill:#ffffff;stroke-width:40"
     d="m 753.57161,-205.3335 h -32.21328 v -88.10652 q 0,-5.54666 0.21333,-14.50665 0.42667,-8.95998 0.64,-15.78664 -1.06666,1.28 -4.69332,4.69333 -3.41333,3.19999 -6.39999,5.75999 l -17.49331,14.07998 -15.57331,-19.41331 49.06659,-39.03993 h 26.45329 z"
     id="text1-7-0"
     aria-label="1" />
</svg>
