<?xml version="1.0" encoding="UTF-8" standalone="no"?>
<svg
   viewBox="0 0 1320 800"
   xmlns="http://www.w3.org/2000/svg"
     style="fill:#0082fc;font-size:280px;font-weight:bold;font-family:'Noto Sans';">

    <path
     d="M 240,800 V 496 L 56,680 0,624 224,400 0,176 l 56,-56 184,184 v -304 h 40 l 228,228 -172,172 172,172 -228,228 z m 80,-496 76,-76 -76,-74 z m 0,342 76,-74 -76,-76 z"
      />
    <g id="svg_btctrl">
        <rect x="580" y="0" width="740" height="240"></rect>
        <text x="580" y="220" style="fill:#fff">CTRL</text>
    </g>
    <g id="svg_btbms0">
        <rect x="580" y="280" width="350" height="240"></rect>
        <text x="580" y="500" style="fill:#fff">B0</text>
    </g>
    <g id="svg_bttf">
        <rect x="580" y="560" width="350" height="240"></rect>
        <text x="600" y="780" style="fill:#fff">TF</text>
    </g>
    <g id="svg_btbms1">
        <rect x="970" y="280" width="350" height="240"></rect>
        <text x="970" y="500" style="fill:#fff">B1</text>
    </g>
    <g id="svg_bttr">
        <rect x="970" y="560" width="350" height="240" class="ind"></rect>
        <text x="970" y="780" style="fill:#fff" class="txt">TR</text>
    </g>
</svg>
