<?xml version="1.0" encoding="UTF-8" standalone="no"?>
<svg
   viewBox="0 0 20 20"
   xmlns="http://www.w3.org/2000/svg"
  style="fill:#f9ac29;">

  <path
     d="m 15,2.76 c 1.86,1.43 3,3.85 3,6.24 0,3 -1.67,5.64 -4.14,7 H 6.14 C 3.67,14.64 2,12 2,9 2,6.61 3.09,4.17 5,2.76 V 0 H 3 V 1.86 C 1.15,3.68 0,6.2 0,9 c 0,2.8 1.15,5.32 3,7.14 V 20 h 2 v -2 h 2 v 2 h 2 v -2 h 2 v 2 h 2 v -2 h 2 v 2 h 2 V 16.14 C 18.85,14.32 20,11.8 20,9 20,6.2 18.85,3.68 17,1.86 V 0 h -2 z"/>
  <text
     style="font-weight:bold;font-size:14.9457px;font-family:'Noto Sans';"
     x="7.9123745"
     y="13.358089"
     id="svg_tire_warn_excl">!</text>
  <text
     style="font-weight:bold;font-size:14.9457px;font-family:'Noto Sans';"
     x="5.7331095"
     y="13.446644"
     id="svg_tire_warn_front">F</text>
  <text
     style="font-weight:bold;font-size:14.9457px;font-family:'Noto Sans';"
     x="4.8775167"
     y="13.419899"
     id="svg_tire_warn_rear">R</text>
</svg>
