<?xml version="1.0" encoding="UTF-8" standalone="no"?>
<svg
   width="13.761mm"
   height="12.742mm"
   viewBox="0 0 13.761 12.742"
   xmlns="http://www.w3.org/2000/svg">
  <path
     d="M 12.996,3.166 V 0.668 H 12.491 V 3.166 H 11.451 V 0.668 h -0.504 v 2.498 h -0.765 v 2.651 h 0.003 c 0.024,0.512 0.575,0.939 1.315,1.069 l -0.007,3.081 0.003,0.035 c 0,0.002 0.028,0.254 -0.137,0.446 -0.165,0.192 -0.497,0.294 -0.956,0.294 -0.451,0 -0.779,-0.104 -0.980,-0.308 C 9.186,10.193 9.193,9.859 9.193,9.859 V 6.332 c 0,-0.483 -0.165,-0.892 -0.476,-1.183 C 8.328,4.788 7.820,4.694 7.510,4.672 V 0.712 C 7.510,0.318 7.193,0 6.797,0 H 1.100 C 0.705,0 0.388,0.318 0.388,0.712 V 12.020 H 0 v 0.722 H 1.100 6.798 7.895 V 12.020 H 7.510 V 5.627 C 7.683,5.647 7.919,5.702 8.068,5.842 8.184,5.952 8.240,6.112 8.240,6.332 v 3.493 c -0.003,0.125 0.007,0.749 0.486,1.256 0.384,0.406 0.948,0.611 1.675,0.611 0.754,0 1.319,-0.209 1.675,-0.623 0.395,-0.460 0.381,-0.998 0.363,-1.163 l 0.007,-3.021 c 0.737,-0.131 1.284,-0.557 1.308,-1.068 h 0.003 V 3.166 Z M 6.265,5.243 H 1.633 V 1.088 h 4.631 v 4.155"
     style="display:inline;fill:#f9ac29;stroke:none" />
</svg>
