<?xml version="1.0" encoding="UTF-8" standalone="no"?>

<svg
   width="13.761879mm"
   height="12.742686mm"
   viewBox="0 0 13.761879 12.742686"
   version="1.1"
   id="svg1"
   xmlns="http://www.w3.org/2000/svg">
  <path
     id="path418"
     d="m 67.235948,67.724483 v -2.498019 h -0.504473 v 2.498019 h -1.040694 v -2.498019 h -0.504472 v 2.498019 h -0.765528 v 2.651125 h 0.0035 c 0.02469,0.512587 0.575027,0.939095 1.315861,1.06927 l -0.0071,3.081514 0.0035,0.03528 c 0,0.0025 0.02822,0.254705 -0.137583,0.446969 -0.165806,0.192264 -0.497417,0.294217 -0.956028,0.294217 -0.451556,0 -0.779639,-0.104069 -0.980722,-0.308328 -0.236362,-0.242711 -0.229306,-0.577144 -0.229306,-0.577144 v -3.527073 c 0,-0.483305 -0.165806,-0.89288 -0.47625,-1.183922 -0.388056,-0.359833 -0.896056,-0.453672 -1.2065,-0.475192 v -3.960283 c 0,-0.3937 -0.3175,-0.712611 -0.712611,-0.712611 H 55.34028 c -0.395111,0 -0.712611,0.318911 -0.712611,0.712611 v 11.307939 h -0.388055 v 0.722136 h 1.100666 5.697362 1.097139 v -0.722136 h -0.384528 v -6.392686 c 0.172861,0.02011 0.409222,0.07479 0.557389,0.214489 0.116416,0.110066 0.172861,0.270227 0.172861,0.489655 v 3.493559 c -0.0035,0.125941 0.0071,0.749653 0.486833,1.256947 0.384528,0.406047 0.948973,0.611717 1.675695,0.611717 0.754944,0 1.319389,-0.209903 1.675694,-0.623711 0.395112,-0.460375 0.381,-0.998714 0.363362,-1.163462 l 0.0071,-3.021189 c 0.737306,-0.131233 1.284111,-0.557036 1.308806,-1.068564 h 0.0035 v -2.651125 z m -6.731001,2.077156 h -4.631972 v -4.155017 h 4.631972 v 4.155017"
     style="display:inline;fill:#f9ac29;stroke:none"
     transform="translate(-54.239615,-64.558304)" />
</svg>
