<?xml version="1.0" encoding="UTF-8" standalone="no"?>
<svg
   height="18"
   viewBox="0 -960 720 720"
   width="18"
   fill="#ffffff"
   version="1.1"
   id="svg1"
   xmlns="http://www.w3.org/2000/svg"
   xmlns:svg="http://www.w3.org/2000/svg">
  <defs
     id="defs1" />
  <path
     d="m 240,-480 v -240 h 240 v 240 z m 80,-80 h 80 v -80 h -80 z m -80,320 v -80 h -80 q -33,0 -56.5,-23.5 Q 80,-367 80,-400 v -80 H 0 v -80 h 80 v -80 H 0 v -80 h 80 v -80 q 0,-33 23.5,-56.5 Q 127,-880 160,-880 h 80 v -80 h 80 v 80 h 80 v -80 h 80 v 80 h 80 q 33,0 56.5,23.5 23.5,23.5 23.5,56.5 v 80 h 80 v 80 h -80 v 80 h 80 v 80 h -80 v 80 q 0,33 -23.5,56.5 Q 593,-320 560,-320 h -80 v 80 h -80 v -80 h -80 v 80 z M 560,-400 V -800 H 160 v 400 z M 360,-600 Z"
     id="path1" />
</svg>
