<?xml version="1.0" encoding="UTF-8" standalone="no"?>
<svg
   height="18.025478"
   viewBox="0 -960 762.56973 721.01913"
   width="19.064243"
   fill="#ffffff"
   version="1.1"
   id="svg2"
   xmlns="http://www.w3.org/2000/svg"
   xmlns:svg="http://www.w3.org/2000/svg">
  <defs
     id="defs2" />
  <path
     d="m 750.00442,-692.45433 c -23.81135,-88.86517 -74.02075,-158.40624 -150.6282,-208.62321 -76.60744,-50.21697 -160.31587,-68.33569 -251.12529,-54.35614 l 21.22317,79.20592 c 69.3865,-8.92948 132.7465,6.01427 190.08,44.83126 57.3335,38.81699 95.05892,92.03289 113.17625,159.6477 20.18789,75.34221 11.0721,146.28556 -27.34737,212.83003 -38.41947,66.54447 -95.30032,109.91064 -170.64253,130.09853 -75.34221,20.18789 -146.28556,11.0721 -212.83003,-27.34737 -66.54447,-38.41947 -109.91064,-95.30032 -130.09853,-170.64253 -11.90568,-44.43259 -12.73169,-88.72813 -2.47803,-132.88664 10.25365,-44.15851 29.8739,-84.27003 58.86075,-120.33458 l 28.47009,106.25184 77.27407,-20.70553 L 231.8222,-926.30724 0,-864.19067 l 20.705524,77.27406 90.797026,-24.32899 c -32.412989,43.88443 -53.547549,92.51138 -63.403689,145.88085 -9.85613,53.36948 -7.70981,106.45619 6.43896,159.26014 12.94095,48.29629 34.23861,91.07503 63.892959,128.33623 29.65436,37.2612 64.28158,67.32336 103.88166,90.18648 39.60009,22.86312 82.94829,37.82009 130.04461,44.87092 47.09633,7.05083 94.79264,4.10576 143.08893,-8.83519 48.29629,-12.94095 91.07503,-34.23861 128.33623,-63.89296 37.2612,-29.65436 67.32336,-64.28158 90.18648,-103.88166 22.86312,-39.60009 37.82009,-82.94829 44.87092,-130.04461 7.05083,-47.09633 4.10576,-94.79264 -8.83519,-143.08893 z"
     id="path1" />
  <path
     d="M 370.43521,-303.90217 553.95953,-661.77459 H 425.49251 v -229.40539 l -183.52432,357.87241 h 128.46702 z"
     style="stroke-width:0.917622"
     id="path2" />
</svg>
