<?xml version="1.0" encoding="UTF-8" standalone="no"?>

<svg
   width="14.160501mm"
   height="9.80299mm"
   viewBox="34.202623 18.616618 14.160501 9.80299"
   version="1.1"
   xmlns="http://www.w3.org/2000/svg">
  <g style="fill:#4a72c1;stroke:none;">
    <path d="m 39.586012,19.447758 h -5.383389 v 0.80786 h 5.383389 v -0.80786"/>
    <path d="m 39.586012,21.281148 h -5.383389 v 0.80786 h 5.383389 v -0.80786"/>
    <path d="m 39.586012,23.114178 h -5.383389 v 0.80822 h 5.383389 v -0.80822"/>
    <path d="m 39.586012,24.947568 h -5.383389 v 0.80821 h 5.383389 v -0.80821"/>
    <path d="m 39.586012,26.780958 h -5.383389 v 0.80821 h 5.383389 v -0.80821"/>
    <path d="m 40.058734,27.076578 c 0,0 -0.03175,1.34303 2.921,1.34303 0.472723,0 0.85725,-0.0448 1.171223,-0.12559 1.989666,-0.43427 4.212167,-2.40665 4.212167,-4.77591 0,-2.36819 -2.222501,-4.34022 -4.212167,-4.7752 -0.310445,-0.0811 -0.6985,-0.12629 -1.171223,-0.12629 -2.95275,0 -2.921,1.34338 -2.921,1.34338 v 3.55811 3.55847"
        />
    </g>
</svg>
