<?xml version="1.0" encoding="UTF-8" standalone="no"?>
<svg
   version="1.1"
   width="318.168"
   height="115.796"
   fill="#fff"
   viewBox="0 0 318.168 115.796"
   xmlns="http://www.w3.org/2000/svg">
  <path
     d="m 23.529,46.067 c -0.133,0.666 0.266,1.266 0.933,1.266 h 15.133 c 8.466,0 15,-6.066 15,-14.133 0,-5.8 -4.066,-8.266 -6.8,-9.6 3.466,-1.733 8.8,-5.8 8.8,-11.933 0,-6.2 -4.933,-11 -11.466,-11 H 30.996 c -0.666,0 -1.2,0.6 -1.266,1.266 z m 14,-26.466 1.333,-9.333 h 4 c 1.6,0 2.6,1.6 2.6,3.4 0,3.466 -1.933,5.933 -4.8,5.933 z m -2.466,18.2 1.333,-9.533 h 4.133 c 1.733,0 3.199,1.533 3.199,3.533 0,3.533 -1.999,6.066 -5.266,6 h -3.4" />
  <path
     d="m 56.426,46.067 c -0.066,0.666 0.333,1.266 1,1.266 h 22.933 c 0.666,0 1.266,-0.6 1.333,-1.266 l 1,-7.266 c 0.066,-0.666 -0.266,-1.266 -0.933,-1.266 h -13.6 l 4.999,-35.6 C 73.224,1.269 72.825,0.669 72.225,0.669 h -8.266 c -0.666,0 -1.266,0.6 -1.333,1.266 l -6.2,44.133"/>
  <path
     d="m 80.255,47.334 h 7.6 c 1.4,0 2.266,-0.733 2.666,-1.6 l 2.6,-5.333 h 14.733 l 1.133,5.266 c 0.266,1.333 0.933,1.666 2.133,1.666 h 7.533 c 0.933,0 1.533,-0.866 1.266,-1.733 L 107.386,0.734 c -0.133,-0.4 -0.466,-0.733 -0.933,-0.733 h -0.6 c -0.533,0 -0.866,0.333 -1.133,0.733 L 79.454,45.6 c -0.466,0.866 -0.133,1.733 0.8,1.733 z m 17.6,-16 5.333,-11.133 h 0.066 l 2.066,11.133 h -7.466"/>
  <path
     d="m 119.551,27 c 0,11.733 8.933,21 19,21 5.333,0 10.333,-1.866 15.066,-6.266 0.466,-0.466 0.733,-1.266 0.333,-1.8 l -4.533,-6 c -0.333,-0.4 -1.133,-0.466 -1.6,-0.066 -2.333,1.933 -5.466,3.466 -7.733,3.466 -5.466,0 -9,-5.2 -9,-11.466 0,-8.466 5.866,-15.8 12.733,-15.8 2.666,0 5.533,1.2 7.2,3.066 0.4,0.4 1,0.466 1.533,0 l 5.733,-5.066 c 0.6,-0.533 0.666,-1.333 0.266,-1.866 -3.533,-4.133 -8.066,-6.2 -14,-6.2 -14.4,0 -25,11.8 -25,26.999"/>
  <path
     d="m 155.847,45.734 c -0.066,0.866 0.4,1.6 1.266,1.6 h 8.066 c 0.8,0 1.6,-0.733 1.666,-1.6 l 2.8,-19.866 9.666,20.6 c 0.266,0.6 0.733,0.866 1.333,0.866 h 9.2 c 0.666,0 1.866,-0.866 1.333,-1.933 l -11.066,-22 15.933,-20.266 c 0.733,-1 0.333,-2.466 -0.8,-2.466 h -9.666 c -0.533,0 -0.933,0.266 -1.2,0.666 l -13.866,18.466 2.466,-17.533 c 0.133,-0.866 -0.466,-1.6 -1.266,-1.6 h -8.066 c -0.866,0 -1.533,0.733 -1.666,1.6 l -6.133,43.466"/>
  <path
     d="m 207.372,46.067 c -0.066,0.666 0.4,1.266 1,1.266 h 8.266 c 0.6,0 1.266,-0.6 1.333,-1.266 l 5,-35.6 h 8.2 c 0.666,0 1.2,-0.6 1.266,-1.266 l 1.066,-7.266 c 0.066,-0.666 -0.333,-1.266 -1,-1.266 H 205.57 c -0.6,0 -1.2,0.6 -1.266,1.266 l -1.066,7.266 c -0.066,0.666 0.333,1.266 1,1.266 h 8.133 l -5,35.6"/>
  <path
     d="m 228.801,46.067 c -0.133,0.666 0.266,1.266 0.933,1.266 h 25.133 c 0.666,0 1.266,-0.6 1.333,-1.266 l 1,-7.266 c 0.066,-0.666 -0.266,-1.266 -0.933,-1.266 h -15.866 l 1.266,-9 h 12.866 c 0.6,0 1.2,-0.533 1.333,-1.266 l 1.066,-7.266 c 0.066,-0.666 -0.4,-1.266 -1,-1.266 h -12.933 l 1.2,-8.266 h 15.866 c 0.666,0 1.2,-0.6 1.266,-1.266 l 1.066,-7.266 c 0.066,-0.666 -0.333,-1.266 -1,-1.266 h -25.133 c -0.6,0 -1.2,0.6 -1.266,1.266 l -6.2,44.133"/>
  <path
     d="m 255.296,47.334 h 7.6 c 1.4,0 2.266,-0.733 2.666,-1.6 l 2.6,-5.333 h 14.733 l 1.133,5.266 c 0.266,1.333 0.933,1.666 2.133,1.666 h 7.533 c 0.933,0 1.533,-0.866 1.266,-1.733 L 282.427,0.734 c -0.133,-0.4 -0.466,-0.733 -0.933,-0.733 h -0.6 c -0.533,0 -0.866,0.333 -1.133,0.733 L 254.495,45.6 c -0.466,0.866 -0.133,1.733 0.8,1.733 z m 17.6,-16 5.333,-11.133 h 0.066 l 2.066,11.133 h -7.466"/>
  <path
     d="m 14.09841,57.934321 c -4.2387871,-4.218058 1.179396,-10.063362 2.845265,-3.227188 2.074361,1.884021 3.099695,11.343489 4.880984,7.761219 1.213138,-3.630385 -0.175123,-10.468065 4.317918,-11.677674 5.19643,0.604787 1.702186,7.064902 1.114367,10.302926 0.0013,4.481628 -1.781114,9.428799 -1.615294,14.029963 1.834376,3.616744 3.506159,9.256804 5.402757,11.696693 1.940857,6.608249 2.339636,0.996937 2.119837,-3.609232 -0.840311,-8.528019 -0.66981,-16.959691 -0.640091,-25.41614 -1.187018,-3.563411 1.430392,-11.57131 5.585786,-6.444323 0.511104,2.996089 -0.850991,6.379547 -0.01588,9.829647 -0.875747,3.071782 0.31592,7.551278 -0.19918,10.543263 -0.02413,5.018375 0.743415,9.796166 0.531293,14.776795 0.437444,3.48295 -0.159385,7.104829 0.814269,10.614794 0.274419,3.016766 -1.071681,12.738356 -5.844562,8.070546 -2.190473,-3.70312 -3.475553,-8.518158 -5.835001,-12.59547 -0.873652,-3.525977 -4.043568,-10.944407 -4.146537,-3.324711 -0.176217,4.287561 -1.172785,8.583235 -1.54966,12.813541 -0.227883,3.03379 -1.686885,8.45197 -5.535291,6.41781 C 13.511127,102.68587 14.40457,96.566882 11.312015,90.83735 10.196929,83.524304 7.6011493,76.214715 5.2175176,69.129569 4.3153469,64.226553 2.1490131,59.725692 0.16158746,55.394918 1.8795581,50.019397 6.3885581,57.212827 7.1802258,59.84951 c 1.5760946,4.3727 2.8664212,8.618462 4.5244242,12.935789 1.064674,4.433508 3.332666,8.810256 3.939279,13.663125 1.581762,8.93181 2.800366,5.132413 3.31101,-1.009805 C 18.7597,80.458435 21.279127,75.277973 18.32451,70.763751 17.011904,66.443444 14.703449,62.384978 14.09841,57.934321 Z M 41.834273,103.45828 C 40.635817,95.42541 41.127002,86.56483 39.888541,78.279253 40.690779,69.55254 37.863052,60.394233 40.333449,51.81509 c 6.059657,-3.247054 2.297363,9.336885 4.014946,12.652493 0.09234,6.150151 0.86048,12.040755 0.73265,18.219395 0.03234,5.328977 1.162485,10.749202 1.468611,15.664889 2.219864,2.380733 -0.68529,8.033043 -1.702172,7.645793 -1.275968,-1.65204 -1.72476,1.76292 -3.013211,-2.53938 z M 50.44452,91.042388 c 0.318546,-8.239836 0.142002,-16.894965 -0.618505,-24.709467 -0.0739,-4.958604 -0.341612,-10.499574 -0.34627,-15.395444 -1.416946,-6.297398 5.960716,-4.963571 4.161001,0.283042 0.870576,11.549329 1.175726,23.193689 1.669117,34.763146 0.766946,4.227569 -4.302204,18.790485 3.361333,12.72555 8.546439,-3.985028 17.377999,-8.09265 26.426276,-11.093878 5.012316,-4.838891 7.707362,4.707129 3.053785,3.864699 -3.138499,1.966034 -7.323721,1.614334 -10.724398,3.955846 -3.885219,1.826682 -8.707127,3.570395 -12.803372,5.635988 -4.9017,2.149 -10.45621,4.24272 -12.805112,9.18363 -2.55464,-2.64346 -4.222606,-4.26921 -2.097336,-9.35992 0.622116,-3.247689 0.362131,-6.56813 0.723481,-9.853192 z m 54.75221,-29.373172 c -6.447546,-5.632192 -5.994633,1.148 -4.49982,5.603354 1.28609,8.477262 2.41612,16.418953 2.84715,24.846645 -0.74023,8.821925 3.78523,0.405889 6.92413,-2.329534 2.30755,-1.754547 4.06658,-4.622304 6.59741,-6.470781 2.85542,-3.590265 7.08379,-6.825117 10.32789,-10.530082 -3.034,-3.087294 -8.48456,-3.49426 -12.23252,-6.02349 -3.33896,-1.707706 -6.86026,-2.99858 -9.96424,-5.096112 z M 94.261706,44.753344 c 5.982054,-1.382762 1.605944,10.92997 8.716944,10.589755 4.71316,2.552009 10.49503,5.406992 15.93187,7.836641 4.53188,2.15752 8.94064,3.337195 13.25188,6.295933 3.23365,1.368654 3.45857,4.965397 0.19159,6.578211 -7.86093,7.25016 -15.03983,14.465585 -22.44754,22.327826 -4.40056,2.53233 -3.75514,9.84963 -8.57244,10.10378 -2.72394,2.12872 -4.828492,9.12932 -8.584978,6.10363 -2.797455,-3.45189 2.136971,-6.09155 3.887834,-9.02896 4.437934,-3.41337 2.237248,-8.717641 2.03693,-13.567767 -0.50784,-9.760694 -2.272457,-18.772083 -3.154651,-28.454513 0.175034,-6.754495 -5.052573,-10.597137 -1.668538,-15.660068 -0.372438,-1.057683 -0.468312,-2.33485 0.411099,-3.124468 z m 78.918504,10.171152 c 2.07022,-1.416011 6.31845,-1.538583 9.4649,-1.996377 3.36766,-1.398141 9.78564,-0.17879 7.32753,4.549735 -3.84945,1.216681 -8.47816,1.013362 -12.20272,1.973013 -4.76772,0.358879 -8.92217,1.766977 -13.80138,2.729866 -2.54234,0.654815 -5.06009,1.714691 -8.16047,1.550136 -3.76943,1.299355 -9.55996,0.378695 -6.80522,6.377793 -0.79422,5.681555 3.67644,2.935595 6.7657,2.745229 4.07675,-0.801547 7.87455,-1.310843 12.31152,-1.776024 2.76538,-0.346195 6.21225,-1.663553 7.64583,1.704169 0.4895,4.724977 -5.74084,3.567546 -8.69823,4.00088 -5.37568,1.291395 -10.82712,1.430527 -16.20536,2.697076 -1.3315,0.924874 1.15016,6.581982 1.05966,9.494922 1.16003,6.268266 0.55179,12.666676 0.78787,19.206446 -5.56606,4.73496 -7.00817,-3.65745 -5.92534,-7.70801 -0.48519,-4.226873 -0.0472,-7.496314 -0.53529,-11.434272 -0.87035,-3.086809 -0.60855,-5.884113 -1.68964,-9.370794 -6.48134,-2.19466 2.4394,-6.446535 -1.24278,-11.413662 -0.10287,-4.360171 -9.2251,0.01045 -7.86226,-6.382352 2.28994,-1.996876 8.14254,0.665708 6.95831,-3.764119 3.23401,-8.887447 5.00542,5.559347 10.5613,0.853518 4.81197,-1.541064 10.56245,-2.052153 15.80306,-3.594475 1.51104,0.638463 3.30377,-1.962167 4.44301,-0.442698 z m 20.69861,44.106194 c -1.19845,-8.032872 -0.70733,-16.893461 -1.94573,-25.179036 0.8006,-8.732058 -2.01287,-17.876166 0.44475,-26.464162 6.05978,-3.247064 2.29709,9.33689 4.01513,12.652492 0.044,6.153864 0.9361,12.034848 0.7321,18.219395 0.0324,5.328973 1.1623,10.749218 1.46843,15.66489 2.21986,2.380747 -0.68531,8.033021 -1.70219,7.645791 -1.27529,-1.652073 -1.72597,1.76293 -3.01249,-2.53937 z m 27.3008,-18.131354 c 4.03031,-0.387506 0.94592,-7.865747 -3.23796,-3.35317 -5.12998,1.420422 -4.83492,1.812446 -0.53489,2.443611 1.33424,0.746094 2.14369,0.616222 3.77285,0.909559 z M 237.65008,54.6688 c -4.39439,-0.437089 -13.7547,-5.486065 -10.85744,3.056339 0.78265,4.329889 -1.12248,14.357963 5.72132,8.652134 5.34069,-2.946433 10.57334,-5.871225 15.75459,-8.660274 -1.17966,-1.174588 -8.05586,-2.118001 -10.61847,-3.048199 z m -18.87473,-4.113338 c -4.64936,-1.425092 -9.76802,-2.301571 -14.28303,-3.228612 -5.16031,-4.650915 2.3895,-6.802887 5.67422,-3.511648 3.67916,1.055373 7.56687,2.13775 11.19686,2.605694 0.87591,-8.8906 5.07475,1.623011 8.79192,1.871424 8.61099,2.17792 17.67947,3.333894 25.84577,7.242798 2.49225,6.410051 -9.11073,5.377062 -12.59226,9.484555 -4.91989,3.209291 -11.07812,5.112794 -15.45748,8.551563 0.0312,5.173195 -0.36206,10.741223 5.78323,10.77521 5.73099,2.591715 12.21484,4.730192 18.15597,7.670775 6.8784,3.724683 13.88547,7.605652 21.08496,10.779429 2.60223,3.25526 -0.80258,8.09077 -1.18324,8.09127 0.64036,3.80159 -2.6245,-5.40715 -5.64845,-6.11718 -8.10898,-5.39087 -17.35379,-9.2925 -26.42652,-13.306493 -3.54985,-1.372182 -7.04589,-2.894929 -10.74827,-3.734725 -0.32721,5.616004 1.37462,11.35112 2.62433,17.147878 -1.01511,3.82853 -3.13262,11.22649 -5.66928,3.61154 -1.11465,-5.10762 -1.16142,-10.174327 -2.16647,-15.338447 -0.26688,-3.293969 0.70382,-8.14687 -3.87326,-7.785603 -6.0937,-2.048926 -13.08819,-1.988932 -19.04008,-2.989079 -3.41598,-3.618975 2.61626,-5.488935 5.51538,-5.426846 5.37486,-1.775606 10.72386,-3.443965 15.95093,-5.524642 0.0201,-6.446611 -0.40287,-12.723465 -0.7534,-18.927094 0.0533,-1.688603 -1.80534,-1.354869 -2.78183,-1.941767 z m 75.77541,48.484875 c -2.07522,1.734343 -4.03696,5.144673 -7.20332,3.046923 -2.3486,-3.163327 -1.10538,-7.736618 -1.44279,-11.304793 0.0331,-2.90108 -0.44996,-5.818955 -0.55059,-8.492582 -0.85133,-2.000942 -0.77929,-3.991029 -1.59417,-6.131198 -1.3884,-3.210836 -2.516,-7.265162 -4.25098,-10.513722 -0.14465,-3.609834 -2.974,-6.244448 -5.31898,-8.957972 -3.48141,-4.83171 4.21405,-5.425666 7.19061,-3.656851 4.39942,1.06352 8.18334,2.05931 13.03303,2.250636 6.68216,0.474009 13.29585,0.811112 19.71609,2.155994 4.2789,3.14143 -1.14656,5.154202 -3.87451,6.085378 -2.57635,0.57626 -5.82025,1.892903 -9.16565,2.72142 -4.28344,0.03171 -11.16057,7.323666 -13.00388,1.464681 1.90166,-2.879326 6.66786,-2.645651 9.59518,-4.531118 1.33961,-0.708364 6.72608,-1.474396 4.88926,-2.569356 -6.86494,-0.126376 -13.72435,-1.349676 -20.52281,-2.031507 2.45544,4.774543 3.76273,10.309188 6.11002,15.219611 1.59397,5.21026 2.56628,10.814403 2.90956,16.530324 0.0357,1.427405 -0.67277,6.035365 0.82866,4.028545 3.84142,-3.788988 7.92497,-7.592715 12.65694,-10.595908 1.74151,-0.940536 5.37832,-2.43177 8.31502,-3.17635 3.67359,-2.639839 6.76624,4.281653 1.88077,4.594595 -2.02517,0.438134 -4.02965,1.039236 -6.04042,2.109322 -2.76388,0.900545 -5.19261,3.416284 -6.84773,4.751304 -2.06776,1.556837 -4.14258,3.673181 -6.0103,5.845379 -0.86139,0.06274 -0.67317,0.759547 -1.29901,1.157245 z" />
</svg>
