<?xml version="1.0" encoding="UTF-8" standalone="no"?>
<svg
   width="15.226mm"
   height="14.580mm"
   viewBox="0 0 15.226 14.580"
   version="1.1"
   xmlns="http://www.w3.org/2000/svg">
   <g style="fill:#f9ac29;stroke:none">
  <path d="m 7.589,12.624 c 1.049,0 1.903,-0.854 1.903,-1.903 0,-0.821 -0.524,-1.521 -1.254,-1.787 V 8.108 h 1.749 c 0.344,0 0.624,-0.280 0.624,-0.624 0,-0.344 -0.280,-0.625 -0.624,-0.625 H 8.238 V 5.820 h 1.749 c 0.344,0 0.624,-0.280 0.624,-0.624 0,-0.344 -0.280,-0.624 -0.624,-0.624 H 8.238 V 3.532 h 1.749 c 0.344,0 0.624,-0.280 0.624,-0.624 0,-0.344 -0.280,-0.624 -0.624,-0.624 H 8.238 V 0.649 C 8.238,0.291 7.946,0 7.589,0 7.231,0 6.940,0.291 6.940,0.649 V 8.933 C 6.208,9.199 5.685,9.899 5.685,10.720 c 0,1.049 0.854,1.903 1.904,1.903" />
  <path d="m 14.772,10.609 c -0.166,0 -0.232,-0.055 -0.400,-0.216 C 14.176,10.206 13.882,9.923 13.342,9.923 c -0.540,0 -0.834,0.282 -1.029,0.469 -0.167,0.160 -0.234,0.216 -0.400,0.216 -0.165,0 -0.232,-0.055 -0.399,-0.216 -0.195,-0.186 -0.489,-0.469 -1.029,-0.469 -0.250,0 -0.454,0.203 -0.454,0.454 0,0.250 0.203,0.454 0.454,0.454 0.165,0 0.232,0.055 0.399,0.216 0.195,0.186 0.489,0.469 1.029,0.469 0.540,0 0.835,-0.282 1.029,-0.469 0.167,-0.160 0.234,-0.216 0.400,-0.216 0.166,0 0.232,0.055 0.400,0.216 0.194,0.187 0.489,0.469 1.029,0.469 0.250,0 0.454,-0.203 0.454,-0.454 0,-0.250 -0.203,-0.454 -0.454,-0.454" />
  <path d="m 2.913,11.048 c 0.167,-0.160 0.233,-0.216 0.400,-0.216 0.166,0 0.232,0.055 0.400,0.216 0.194,0.187 0.489,0.469 1.029,0.469 0.250,0 0.454,-0.203 0.454,-0.454 0,-0.250 -0.203,-0.454 -0.454,-0.454 -0.166,0 -0.232,-0.055 -0.400,-0.216 C 4.148,10.206 3.854,9.923 3.313,9.923 c -0.540,0 -0.835,0.282 -1.029,0.469 -0.167,0.160 -0.234,0.216 -0.400,0.216 -0.166,0 -0.232,-0.055 -0.399,-0.216 C 1.288,10.206 0.994,9.923 0.454,9.923 0.203,9.923 0,10.126 0,10.377 c 0,0.250 0.203,0.454 0.454,0.454 0.166,0 0.232,0.055 0.399,0.216 0.195,0.186 0.489,0.469 1.029,0.469 0.540,0 0.835,-0.282 1.030,-0.469" />
  <path d="m 12.959,13.027 c -0.518,0 -0.799,0.269 -0.986,0.448 -0.154,0.148 -0.210,0.195 -0.357,0.195 -0.146,0 -0.202,-0.046 -0.357,-0.195 -0.186,-0.178 -0.467,-0.448 -0.986,-0.448 -0.518,0 -0.800,0.269 -0.986,0.448 -0.154,0.148 -0.210,0.195 -0.356,0.195 -0.146,0 -0.201,-0.046 -0.356,-0.195 -0.186,-0.178 -0.468,-0.448 -0.986,-0.448 -0.518,0 -0.800,0.269 -0.986,0.448 -0.154,0.148 -0.210,0.195 -0.356,0.195 -0.146,0 -0.201,-0.046 -0.356,-0.195 -0.185,-0.178 -0.467,-0.448 -0.985,-0.448 -0.518,0 -0.799,0.269 -0.986,0.448 -0.154,0.148 -0.210,0.195 -0.355,0.195 -0.146,0 -0.202,-0.046 -0.357,-0.195 -0.185,-0.178 -0.467,-0.448 -0.986,-0.448 -0.250,0 -0.454,0.203 -0.454,0.454 0,0.251 0.203,0.454 0.454,0.454 0.146,0 0.201,0.047 0.357,0.195 0.185,0.178 0.467,0.448 0.986,0.448 0.517,0 0.799,-0.269 0.986,-0.449 0.154,-0.148 0.209,-0.195 0.355,-0.195 0.145,0 0.201,0.047 0.356,0.195 0.185,0.178 0.467,0.448 0.986,0.448 0.518,0 0.800,-0.269 0.986,-0.448 0.154,-0.148 0.210,-0.195 0.356,-0.195 0.146,0 0.201,0.047 0.356,0.195 0.186,0.178 0.468,0.448 0.986,0.448 0.518,0 0.800,-0.269 0.986,-0.448 0.154,-0.148 0.210,-0.195 0.356,-0.195 0.146,0 0.202,0.047 0.357,0.195 0.185,0.178 0.467,0.448 0.986,0.448 0.518,0 0.800,-0.269 0.986,-0.448 0.155,-0.148 0.210,-0.195 0.357,-0.195 0.250,0 0.454,-0.203 0.454,-0.454 0,-0.250 -0.203,-0.454 -0.454,-0.454" />
  </g>
</svg>
