<?xml version="1.0" encoding="UTF-8" standalone="no"?>
<svg
   width="15.226mm"
   height="14.580mm"
   viewBox="0 0 15.226 14.580"
   version="1.1"
   id="icon-temp"
   xmlns="http://www.w3.org/2000/svg"
   xmlns:svg="http://www.w3.org/2000/svg">

  <g
     style="fill:#f9ac29;stroke:none"
     >
    <path
       d="m 7.589,12.624 c 1.049,0 1.903,-0.854 1.903,-1.903 0,-0.821 -0.524,-1.521 -1.254,-1.787 V 8.108 h 1.749 c 0.344,0 0.624,-0.280 0.624,-0.624 0,-0.344 -0.280,-0.625 -0.624,-0.625 H 8.238 V 5.820 h 1.749 c 0.344,0 0.624,-0.280 0.624,-0.624 0,-0.344 -0.280,-0.624 -0.624,-0.624 H 8.238 V 3.532 h 1.749 c 0.344,0 0.624,-0.280 0.624,-0.624 0,-0.344 -0.280,-0.624 -0.624,-0.624 H 8.238 V 0.649 C 8.238,0.291 7.946,0 7.589,0 7.231,0 6.940,0.291 6.940,0.649 V 8.933 C 6.208,9.199 5.685,9.899 5.685,10.720 c 0,1.049 0.854,1.903 1.904,1.903"
        />
  
  <rect
     width="4.9520993"
     height="0.913"
     x="0"
     y="10.2" />
  <rect
     width="5.1646361"
     height="0.913"
     x="10"
     y="10.2" />
  <rect
     width="11.625744"
     height="0.913"
     x="1.7734528"
     y="13.202723" /></g>
</svg>
